<?xml version="1.0" encoding="utf-8"?>
<!-- Generator: Adobe Illustrator 24.0.2, SVG Export Plug-In . SVG Version: 6.00 Build 0)  -->
<svg version="1.1" xmlns="http://www.w3.org/2000/svg" xmlns:xlink="http://www.w3.org/1999/xlink" x="0px" y="0px"
	 viewBox="0 0 1652.6 448.8" style="enable-background:new 0 0 1652.6 448.8;" xml:space="preserve">
<style type="text/css">
	.st0{fill:#231F20;}
	.st1{fill:#0614BD;}
	.st2{fill:#FF6009;}
	.st3{fill:#9B9B9B;}
	.st4{clip-path:url(#SVGID_2_);}
</style>
<g id="Layer_1">
</g>
<g id="Layer_2">
	<g>
		<g>
			<path class="st1" d="M416.5,221c3.6,27.2,27.2,46.8,65.5,46.8c20.1,0,46.3-7.6,58.8-20.5l34.8,34.3
				c-23.2,24.1-61.1,35.7-94.5,35.7c-75.8,0-120.8-46.8-120.8-117.2c0-66.8,45.5-115,116.8-115c73.5,0,119.4,45.5,111,135.9H416.5z
				 M535.9,176c-3.6-28.5-25.8-42.8-57-42.8c-29.4,0-53.5,14.3-61.5,42.8H535.9z"/>
			<path class="st1" d="M680.3,91.8l4,25.4C701.2,90,724,86,746.2,86c22.7,0,44.6,8.9,56.6,20.9l-24.5,47.2
				c-11.1-9.4-21.4-14.3-39.2-14.3c-28.5,0-54.8,15.2-54.8,55.7v115.9h-54.4V91.8H680.3z"/>
			<path class="st1" d="M877.3,0v311.5h-53.9V0H877.3z"/>
			<path class="st1" d="M1143.3,201.9c0,63.3-43.2,114.5-114.5,114.5s-114.1-51.2-114.1-114.5c0-62.8,43.7-114.5,113.6-114.5
				S1143.3,139,1143.3,201.9z M969,201.9c0,33.4,20.1,64.6,59.7,64.6c39.7,0,59.7-31.2,59.7-64.6c0-33-23.2-65.1-59.7-65.1
				C989.5,136.8,969,168.9,969,201.9z"/>
			<path class="st1" d="M1353.2,69.5l40.1,30.3l-24.5,31.2c16.9,19.2,23.2,41,23.2,65.1c0,27.2-10.3,65.5-46.3,82
				c36.5,18.3,45.5,44.6,45.5,72.6c0,60.6-46.3,98-110.1,98c-63.7,0-111.4-38.8-111.4-98h53.9c0,28.5,26.3,47.2,57.5,47.2
				c31.2,0,55.7-16.9,55.7-47.2s-28.5-44.1-55.7-44.1c-68.6,0-111.4-41.9-111.4-110.5c0-68.6,49.9-111.4,111.4-111.4
				c17.4,0,35.2,2.2,50.4,12.5L1353.2,69.5z M1223.5,196.1c0,38.3,25.8,61.1,57.5,61.1c31.2,0,57-23.2,57-61.1s-25.8-61.9-57-61.9
				C1249.3,134.1,1223.5,157.8,1223.5,196.1z"/>
			<path class="st1" d="M1592.5,91.8h60.2l-134.1,311.5h-59.7L1592.5,91.8z"/>
			<path class="st2" d="M1116.7,405.5H941.3v-53.9h175.4V405.5z"/>
			<polygon class="st1" points="1526.1,239.8 1467.1,91.8 1412,91.8 1472.1,239.8 			"/>
		</g>
		<g>
			<path class="st1" d="M195,361.3h-15.4V353c14.1,0,25.9,0,40.1,0v8.3h-15.4v40.3H195V361.3z"/>
			<path class="st1" d="M275.4,401.6H239c0-16.2,0-32.5,0-48.7h36.4v8.9h-27.3v11.2h26.4v8.6h-26.4v11h27.3V401.6z"/>
			<path class="st1" d="M339.4,395.5c-5,4.9-11.5,7.2-18.5,7.2c-18.1,0-25.7-12.4-25.8-25.1c-0.1-12.7,8.2-25.7,25.8-25.7
				c6.6,0,12.9,2.5,17.9,7.4l-6.1,5.9c-3.2-3.1-7.5-4.6-11.8-4.6c-11.8,0-16.8,8.8-16.8,16.9c0.1,8.1,4.7,16.5,16.8,16.5
				c4.2,0,9-1.7,12.2-4.9L339.4,395.5z"/>
			<path class="st1" d="M391.6,401.7V382h-23.9v19.7h-9.2V353h9.2v20.5h23.9V353h9.1v48.7H391.6z"/>
			<path class="st1" d="M455.2,352.9h9.2v48.8h-5.7v0.1l-25.6-32.9v32.8h-9.2V353h7.4l23.9,30.2V352.9z"/>
			<path class="st1" d="M535.3,377.6c-0.1,12.6-7.9,25.2-25,25.2c-17.1,0-25-12.3-25-25.1c0-12.8,8.2-25.7,25-25.7
				C527.1,352,535.4,364.8,535.3,377.6z M494.3,377.8c0.2,8,4.5,16.6,16,16.6c11.5,0,15.8-8.6,15.9-16.6c0.1-8.2-4.5-17.4-15.9-17.4
				C498.8,360.3,494.1,369.6,494.3,377.8z"/>
			<path class="st1" d="M565.1,353v40.2h25v8.5H556V353H565.1z"/>
			<path class="st1" d="M656.9,377.6c-0.1,12.6-7.9,25.2-25,25.2c-17.1,0-25-12.3-25-25.1c0-12.8,8.2-25.7,25-25.7
				C648.7,352,657.1,364.8,656.9,377.6z M616,377.8c0.2,8,4.5,16.6,16,16.6s15.8-8.6,15.9-16.6c0.1-8.2-4.5-17.4-15.9-17.4
				S615.8,369.6,616,377.8z"/>
			<path class="st1" d="M713.8,364.8c-3.3-3.1-8.1-4.9-12.4-4.9c-10.4,0-16.8,7.9-16.8,17.9c0,8,4.7,16.3,16.8,16.3
				c3.8,0,7.2-0.8,11-3.9v-8.6h-12.4v-8.2h20.9V394c-4.8,5.5-10.8,8.8-19.4,8.8c-18.3,0-25.7-12-25.7-24.8
				c0-13.7,8.6-26.4,25.7-26.4c6.5,0,13.1,2.5,18.1,7.4L713.8,364.8z"/>
			<path class="st1" d="M742.3,401.6V353h9.1v48.7H742.3z"/>
			<path class="st1" d="M810.3,401.6h-36.4c0-16.2,0-32.5,0-48.7h36.4v8.9h-27.3v11.2h26.4v8.6h-26.4v11h27.3V401.6z"/>
			<path class="st1" d="M862.8,364.7c-1.7-2.8-6.3-5.4-11.5-5.4c-6.8,0-10.1,2.9-10.1,6.5c0,4.2,5,5.4,10.8,6.1
				c10.2,1.3,19.6,3.9,19.6,15.5c0,10.8-9.6,15.5-20.4,15.5c-9.9,0-17.6-3.1-21.2-12l7.7-4c2.2,5.4,7.8,7.7,13.7,7.7
				c5.8,0,11.2-2,11.2-7.3c0-4.6-4.8-6.5-11.3-7.2c-9.9-1.2-19.1-3.8-19.1-14.7c0-10,9.9-14.1,18.8-14.2c7.6,0,15.4,2.2,19.1,9.7
				L862.8,364.7z"/>
		</g>
		<g>
			<path class="st2" d="M61.7,124H1.8c-1,0-1.8-0.8-1.8-1.8V62.4c0-1,0.8-1.8,1.8-1.8h59.9c1,0,1.8,0.8,1.8,1.8v59.9
				C63.4,123.2,62.6,124,61.7,124z"/>
			<path class="st1" d="M214.3,5.7c-48.9,0-97.8,0.4-146.7,0.4v54.5c0.2,0,0.5-0.1,0.7-0.1h53.9c2.6,0,4.8,2.1,4.8,4.8v53.4
				c0.1,0,0.2,0,0.3,0h53.9c2.6,0,4.8,2.1,4.8,4.8v53.9c0,2.6-2.1,4.8-4.8,4.8h-53.9c-2.6,0-4.8-2.1-4.8-4.8V124c-0.1,0-0.2,0-0.3,0
				H68.4c-0.2,0-0.5,0-0.7-0.1v185.1h58.7v-83.4h88C366.8,225.7,366.3,5.7,214.3,5.7z"/>
		</g>
	</g>
</g>
</svg>
